<svg xmlns="http://www.w3.org/2000/svg" viewBox="0 0 200 200">
  <defs>
    <linearGradient id="heartGradient" x1="0%" y1="0%" x2="100%" y2="100%">
      <stop offset="0%" style="stop-color:#ff4b4b"/>
      <stop offset="100%" style="stop-color:#dc2626"/>
    </linearGradient>
    <filter id="shadow" x="-20%" y="-20%" width="140%" height="140%">
      <feGaussianBlur in="SourceAlpha" stdDeviation="3"/>
      <feOffset dx="2" dy="2" result="offsetblur"/>
      <feComponentTransfer>
        <feFuncA type="linear" slope="0.3"/>
      </feComponentTransfer>
      <feMerge>
        <feMergeNode/>
        <feMergeNode in="SourceGraphic"/>
      </feMerge>
    </filter>
  </defs>
  <g transform="translate(20, 20)" filter="url(#shadow)">
    <path d="M80 150c-1.8 0-3.4-.7-4.7-2C56 128.7 47.5 120.4 42.5 113.3c-6-8.6-9-16.4-9-23.3 0-11.8 9.5-21.3 21.3-21.3 7.7 0 15.2 4.3 18.9 10.5.6 1 1.5 1.5 2.6 1.5s2-.5 2.6-1.5c3.7-6.2 11.2-10.5 18.9-10.5 11.8 0 21.3 9.5 21.3 21.3 0 6.9-3 14.7-9 23.3-5 7.1-13.5 15.4-32.8 34.7-1.3 1.3-2.9 2-4.7 2z" fill="url(#heartGradient)"/>
    <path d="M70 80 h20 v-10 h10 v20 h-10 v10 h-20 v-10 h-10 v-20 h10 z" fill="white"/>
  </g>
</svg>